<?xml version="1.0" encoding="UTF-8"?>
<svg id="Layer_2" xmlns="http://www.w3.org/2000/svg" xmlns:xlink="http://www.w3.org/1999/xlink" viewBox="0 0 431.88 336.03">
  <defs>
    <style>
      .cls-1 {
        fill: url(#linear-gradient-2);
      }

      .cls-2 {
        fill: url(#linear-gradient-4);
      }

      .cls-3 {
        fill: url(#linear-gradient-3);
      }

      .cls-4 {
        fill: url(#linear-gradient);
      }
    </style>
    <linearGradient id="linear-gradient" x1="217.05" y1="-4.89" x2="215.42" y2="426.99" gradientUnits="userSpaceOnUse">
      <stop offset="0" stop-color="#fff"/>
      <stop offset=".77" stop-color="#f89c61"/>
    </linearGradient>
    <linearGradient id="linear-gradient-2" x1="80.34" y1="159.87" x2="8.82" y2="-90.81" xlink:href="#linear-gradient"/>
    <linearGradient id="linear-gradient-3" x1="328.16" y1="135.53" x2="438.71" y2="-31.69" xlink:href="#linear-gradient"/>
    <linearGradient id="linear-gradient-4" x1="216.04" y1="171.24" x2="216.04" y2="416.17" xlink:href="#linear-gradient"/>
  </defs>
  <g id="Layer_1-2" data-name="Layer_1">
    <path class="cls-4" d="M422.61,260.04c-19.45-28.1-38.86-56.22-58.27-84.34-34.95-50.61-69.84-101.27-104.92-151.79-3.28-4.73-7.23-9.31-11.77-12.79-24.43-18.66-57.08-13.29-74.6,12.05C118.55,102.01,64.06,180.85,9.71,259.8c-3.35,4.87-6.27,10.38-7.94,16.02-6.06,20.52,3.94,43.55,22.33,52.81,20.53,10.33,44.84,5.06,58.34-12.98,6.49-8.66,12.46-17.72,18.61-26.64,9.08-13.14,18.12-26.31,27.68-40.21l57.58-83.39c6.78-10.29,13.78-20.44,20.89-30.5,4.97-7.01,12.78-6.96,17.75.09,7.01,9.93,13.76,20.05,20.79,29.97l57.61,83.77c1.98,2.84,3.49,4.99,4.98,7.14,13.65,19.74,26.98,39.72,41.07,59.14,10.67,14.72,25.89,21.25,43.78,18.19,34.99-5.99,49.85-43.66,29.43-73.17Z"/>
    <path class="cls-1" d="M56.37,143.13c-6.11-8.8-11.51-16.53-16.87-24.3-10.41-15.07-20.73-30.2-31.19-45.23-11-15.81-10.54-36.64,1.31-52.78C20.24,6.34,40.96-.45,58.32,4.83c7.79,2.37,15.12,5.88,20.16,12.33,6.23,7.97,12.7,16.04,17.21,24.99,8.38,16.63,6.58,33.41-3.62,48.86-11.01,16.67-22.61,32.95-33.94,49.4-.38.55-.73,1.13-1.76,2.71Z"/>
    <path class="cls-3" d="M375.73,142.96c-9.37-13.59-18.16-26.33-26.95-39.07-2.84-4.11-5.73-8.19-8.53-12.33-10.58-15.66-12.41-32.47-3.98-49.22,4.8-9.54,11.22-18.68,18.59-26.41,15.51-16.27,41.01-17.13,59.29-3.26,17.04,12.93,22.73,37.76,11.69,56.65-8.47,14.5-18.57,28.04-28.03,41.96-6.18,9.09-12.5,18.1-18.77,27.13-.93,1.34-1.92,2.63-3.32,4.56Z"/>
    <path class="cls-2" d="M303.35,248.74c-1.58,2.06-2.81,3.53-3.89,5.1-13.65,19.74-27.09,39.63-40.94,59.23-19.66,27.82-57.94,30.96-79.93,6.16-8.14-9.17-14.55-19.88-21.61-29.99-8.3-11.89-16.44-23.89-24.68-35.82-.92-1.35-1.99-2.59-3.57-4.62l57.58-83.39c-.89,1.36-.95,4.3-.07,5.64,6.98,10.55,14.11,21.02,21.6,31.21,1.78,2.41,5.11,3.67,8.45,5.95,3.31-2.53,6.6-4.09,8.49-6.67,7.2-9.79,13.9-19.95,20.91-29.88,1.68-2.38,1.79-4.22.05-6.69l57.61,83.77Z"/>
  </g>
</svg>