<?xml version="1.0" encoding="UTF-8"?>
<svg id="Layer_2" xmlns="http://www.w3.org/2000/svg" viewBox="0 0 364.68 384">
  <defs>
    <style>
      .cls-1 {
        fill: #fff;
      }
    </style>
  </defs>
  <g id="Layer_1-2" data-name="Layer_1">
    <g>
      <path class="cls-1" d="M295.39,0c1.05.31,2.08.68,3.14.92,16.82,3.79,30.06,17.61,32.72,34.18,2.86,17.82-5.2,35.01-20.61,43.95-15.19,8.81-33.74,7.34-47.64-3.77-.68-.54-1.35-1.08-2.28-1.82-14.66,11.83-29.28,23.62-44.01,35.5,4.32,8.92,6.06,18.13,5.24,28.23,21.77,4.46,43.41,8.9,65.21,13.37.58-1.85,1.02-3.39,1.53-4.9,6.04-18.12,24.76-29.45,43.25-26.18,19.04,3.36,33.09,20.11,32.72,39.03-.37,19.46-14.51,35.51-33.58,38.14-20.21,2.78-38.68-9.9-43.33-29.95-.62-2.68-1.73-3.79-4.45-4.33-21.24-4.22-42.45-8.62-63.61-12.96-1.93,3.69-3.63,7.29-5.66,10.69-2.35,3.94-5.98,5.1-9.1,3.23-3.36-2.02-3.8-5.63-1.33-9.77,8.8-14.74,8.71-29.62-.87-43.7-9.71-14.27-23.88-19.99-40.73-16.55-16.51,3.37-26.97,13.97-30.86,30.49-2.36,10.01-.63,19.59,4.52,28.53.68,1.19,1.45,2.35,1.95,3.61,1.18,2.98.2,5.44-2.3,7.2-2.43,1.71-4.95,1.46-7.26-.37-.86-.68-1.56-1.56-2.4-2.42-1.41.66-2.73,1.37-4.11,1.91-3.07,1.2-6.22.08-7.73-2.65-1.59-2.87-.94-6.71,2.19-8.08,4.18-1.82,4.17-4.14,3.21-8.09-2.95-12.23-1.24-24.04,4.55-35.24.51-.99,1.03-1.99,1.54-2.98.05-.1.02-.25.05-.63-9.73-9.95-19.55-20.07-29.53-30.01-.73-.72-2.95-.65-4.11-.13-23.29,10.57-49.56-2.57-54.92-27.56C32.36,26.14,45.84,5.56,66.95.81,67.76.63,68.54.27,69.33,0c3.74,0,7.49,0,11.23,0,.8.26,1.59.61,2.41.78,22.09,4.65,35.9,27.04,29.56,48.73-1.64,5.6-5,10.69-7.85,16.61,9.44,9.02,19.35,18.48,29.27,27.95,20.62-19.71,55.31-19.29,76.2,4.25,13.66-11.02,27.34-22.05,41.01-33.09.56-.46,1.07-.98,1.75-1.6-.49-.97-.94-1.84-1.36-2.71-11.3-23.42.69-51.23,25.47-59,2.36-.74,4.77-1.29,7.16-1.92,3.74,0,7.49,0,11.23,0ZM289.62,72.28c16.65-.09,29.86-13.44,29.8-30.11-.07-16.58-13.61-29.91-30.18-29.72-16.41.19-29.7,13.58-29.7,29.92,0,16.49,13.59,30,30.09,29.91ZM325.52,184.62c14.8.06,26.72-11.71,26.78-26.46.06-14.72-11.84-26.78-26.49-26.85-14.69-.07-26.7,11.85-26.75,26.55-.05,14.82,11.69,26.69,26.46,26.76ZM101.64,39.29c.1-14.82-11.59-26.71-26.38-26.84-14.71-.14-26.79,11.74-26.87,26.41-.08,14.68,11.78,26.75,26.45,26.93,14.6.18,26.71-11.8,26.81-26.5Z"/>
      <path class="cls-1" d="M179.37,384c-.43-.22-.83-.56-1.28-.64-13.85-2.61-23.73-10.44-30.07-22.92-15.93-31.37-31.92-62.71-47.67-94.17-1.84-3.68-3.04-8.02-3.26-12.13-.64-11.71,6.39-21.69,17.13-25.43,10.62-3.69,21.87-.2,29.03,9.01.38.49.76.97,1.71,2.18.09-1.94.19-3.2.19-4.46,0-32.25-.02-64.5.02-96.75.02-13.63,7.53-23.87,19.61-27.32,15.74-4.49,32.65,7.99,31.92,24.06-.72,15.84-.16,31.74-.16,47.62,0,1.36,0,2.72,0,4.14,19.28-5.31,27.83-1.92,36.32,14.43,7.96-4.53,16.25-5.06,24.61-1.3,8.25,3.7,13.3,10.25,15.77,19.14,6.26-3.29,12.6-4.39,19.34-2.74,11.33,2.76,19.81,12.87,20.06,24.57.23,10.87.12,21.75.07,32.62-.02,4.32-2.49,6.86-6.27,6.76-3.61-.09-5.89-2.55-5.92-6.74-.07-10.12-.02-20.25-.03-30.37,0-5.5-2-10.02-6.72-13.04-8.88-5.67-19.66-.02-19.96,10.51-.18,6.49-.02,13-.05,19.5-.03,4.75-2.18,7.37-5.99,7.44-3.96.07-6.22-2.6-6.23-7.57-.03-11.25.04-22.5-.03-33.75-.05-8.46-4.79-14.53-12.34-16.06-8.17-1.66-15.1,3.71-15.3,12.05-.16,6.75-.03,13.5-.06,20.25-.02,3.27-1.11,5.93-4.54,6.92-4.33,1.24-7.86-1.76-7.89-6.85-.08-11.25.07-22.5-.07-33.75-.1-8.42-7.68-14.08-15.66-11.95-5.14,1.37-8.9,6.03-9.06,11.53-.13,4.62-.01,9.25-.06,13.87-.05,4.57-2.38,7.43-6.06,7.53-3.81.1-6.35-2.81-6.36-7.61-.03-28.75-.02-57.5-.02-86.25,0-8.18-4.35-13.14-11.74-13.41-7.74-.28-14.17,5.37-14.69,12.94-.09,1.37-.05,2.75-.05,4.12,0,40.12,0,80.25,0,120.37,0,.87-.04,1.75,0,2.62.17,3.59-.88,6.6-4.61,7.62-3.74,1.02-6.09-1.05-7.81-4.23-3.5-6.48-7.09-12.9-10.67-19.34-2.73-4.92-6.9-7.48-12.54-7.28-9.86.35-15.73,10.73-11.15,19.99,6.25,12.64,12.74,25.15,19.12,37.73,9.54,18.8,19.16,37.57,28.57,56.44,5.96,11.95,15.34,17.84,28.72,17.72,18.34-.15,36.68.05,55.01-.06,32.02-.19,56.62-23.92,58.2-55.99.02-.37.02-.75.04-1.12.25-4.24,2.81-6.95,6.39-6.77,3.49.17,5.8,2.87,5.82,6.93.06,9.12-1.66,17.94-5.35,26.24-10.66,23.96-28.93,38.19-54.83,42.47-.7.12-1.36.46-2.05.69h-71.11Z"/>
      <path class="cls-1" d="M82.14,183.42c8.13,24.88-5.34,45.62-22.83,53.38-19.25,8.54-41.85,1.45-52.98-16.56-11.21-18.14-7.19-41.25,9.3-55.1,13.75-11.54,41.12-15.81,60.48,6.89,7.16-2.95,10.04-2.67,11.94,1.17,1.79,3.63.4,6.09-5.91,10.21ZM42.23,228c16.53.04,30.06-13.44,30.06-29.96,0-16.5-13.56-30.03-30.05-29.99-16.36.04-29.76,13.41-29.83,29.79-.08,16.6,13.29,30.12,29.82,30.16Z"/>
      <path class="cls-1" d="M106.68,166.66c-.1,3.52-3.06,6.26-6.61,6.14-3.57-.13-6.24-3.05-6.06-6.63.17-3.4,2.94-6,6.37-5.96,3.54.04,6.4,2.97,6.3,6.46Z"/>
      <path class="cls-1" d="M306.58,289.59c3.38-.03,6.11,2.69,6.14,6.12.03,3.43-2.64,6.2-6.02,6.23-3.36.04-6.13-2.72-6.15-6.12-.03-3.42,2.66-6.2,6.03-6.23Z"/>
    </g>
  </g>
</svg>