<?xml version="1.0" encoding="UTF-8"?>
<svg id="Layer_2" xmlns="http://www.w3.org/2000/svg" viewBox="0 0 222.05 221.56">
  <defs>
    <style>
      .cls-1 {
        fill: #fff;
      }
    </style>
  </defs>
  <g id="Layer_1-2" data-name="Layer_1">
    <g>
      <path class="cls-1" d="M191.22,1.07c11.32.27,19.93,5.31,24.88,15.45,5.04,10.3,3.77,20.38-3.16,29.6-1.39,1.85-3.12,3.46-4.77,5.1-52.18,52.2-104.43,104.33-156.47,156.67-4.72,4.75-9.59,7.59-16.26,8.24-9.76.95-19.46,2.59-29.19,3.89-5.33.71-6.78-.71-6.1-5.94,1.47-11.39,2.81-22.8,4.66-34.13.47-2.86,2.08-6.02,4.13-8.07C62.79,117.81,116.77,63.88,170.72,9.91c5.67-5.68,12.33-8.95,20.5-8.84ZM36.32,190.71c3.56,4.06,6.81,7.77,9.38,10.7,51.56-51.52,102.91-102.83,153.95-153.83-9.01-9.04-18.39-18.46-27.56-27.65C120.88,71.12,69.52,122.45,18.01,173.94c3.24,3.16,6.66,6.49,10.58,10.32,41.09-41.16,82.22-82.36,123.52-123.74,2.58,2.49,4.84,4.67,7.39,7.13-41.44,41.4-82.57,82.49-123.17,123.05ZM39.72,207.83c-9.32-9.32-18.3-18.3-27.57-27.56-1.39,10.39-2.79,20.91-4.27,31.96,11.18-1.54,21.45-2.96,31.83-4.39ZM207.96,39.77c5.92-8.54,4.32-19.91-3.64-26.58-7.37-6.19-18.1-6.53-23.75-.88,9.04,9.06,18.07,18.12,27.39,27.46Z"/>
      <path class="cls-1" d="M35.32,11.96c-7.81,7.85-15.3,15.4-22.85,22.98,18.71,18.63,37.56,37.4,56.64,56.4-2.8,2.64-4.97,4.68-7.37,6.94-1.02-.92-2.14-1.84-3.16-2.86C40.32,77.18,22.07,58.93,3.83,40.67c-4.94-4.94-4.93-6.51.02-11.48C12.67,20.35,21.53,11.55,30.31,2.67c3.08-3.11,6.02-3.83,9.41-.43,19.28,19.34,38.6,38.64,57.89,57.96.33.34.52.82.69,1.09-4.88,4.86-9.68,9.64-14.58,14.52-1.68-1.62-3.55-3.43-5.64-5.44,2.62-2.76,5-5.25,7.61-8.01-2.73-2.55-5.35-5-8.7-8.13-3.19,3.77-6.61,7.82-10.3,12.17-2.27-2.81-3.9-4.83-5.82-7.2,3.26-2.98,7.15-6.52,11.3-10.31-2.89-2.57-5.05-4.48-7.95-7.05-1.78,2.39-3.85,5.18-5.88,7.92-2.6-2.75-4.38-4.63-6.46-6.83,1.95-2.07,4.4-4.67,7.23-7.68-2.33-2-4.45-3.83-7.34-6.32-1.75,2.51-3.75,5.38-6.08,8.72-3.13-2.98-5.11-4.86-7.96-7.57,3.12-2.36,6.03-4.56,8.86-6.7-4.14-4.2-7.62-7.74-11.27-11.44Z"/>
      <path class="cls-1" d="M155.42,133.09c-3.26,3.61-6.8,7.52-10.42,11.53-2.35-2.22-4.24-4.01-6.08-5.75,6.33-6.28,12.33-12.24,18.59-18.46.84.74,1.99,1.64,3.01,2.66,19.33,19.31,38.65,38.62,57.96,57.95,4.72,4.73,4.74,6.41.07,11.09-8.93,8.97-17.95,17.86-26.83,26.89-3.21,3.27-6.14,3.47-9.41.19-20.35-20.41-40.74-40.78-61.1-61.18-.22-.22-.34-.56-.56-.94,2.18-1.91,4.39-3.85,6.68-5.87,19.15,19.27,38.92,39.17,58.6,58.98,8.31-8.43,15.88-16.1,23.14-23.47-17.32-17.31-35.07-35.05-53.67-53.63Z"/>
      <path class="cls-1" d="M194.33,182.79c-.03,5.91-5.29,11.21-11.2,11.26-6.17.06-11.44-5.37-11.27-11.61.17-6.09,5.35-11.09,11.36-10.97,5.98.12,11.13,5.37,11.1,11.31ZM182.76,189.32c3.82-.33,6.29-2.17,6.7-6.1.39-3.67-2.53-6.86-6.2-7-3.58-.14-6.98,2.98-6.77,6.52.23,3.82,2.47,6,6.27,6.58Z"/>
    </g>
  </g>
</svg>