<?xml version="1.0" encoding="UTF-8"?>
<svg id="Layer_2" xmlns="http://www.w3.org/2000/svg" viewBox="0 0 243.03 235.78">
  <defs>
    <style>
      .cls-1 {
        fill: #fff;
      }
    </style>
  </defs>
  <g id="Layer_1-2" data-name="Layer_1">
    <g>
      <path class="cls-1" d="M59.55,143.3c8.78,0,16.7,0,24.61,0q8.65,0,8.66,8.52c0,7.83.16,15.66-.08,23.48-.08,2.64-.77,7.26-1.9,7.49-3.33.69-7.05-.19-10.55-.84-1.15-.21-2.07-1.6-3.13-2.4-5.49-4.14-12.17-3.66-16.67,1.19-4.34,4.68-4.34,11.64,0,16.29,4.5,4.82,11.1,5,16.76,1.32,3.17-2.06,7.04-3.31,10.76-4.2,2.92-.7,4.73,1.32,4.74,4.35.06,10.99.19,21.99-.16,32.97-.05,1.47-2.72,4.07-4.19,4.08-23.64.19-47.29.28-70.93-.12-9.75-.17-17.33-9.41-17.43-20.25-.13-14.65-.03-29.31-.03-43.96,0-7.16-.02-14.32.01-21.48.03-6.05.38-6.4,6.61-6.42,7.16-.02,14.32.02,21.48,0,1.77,0,3.54-.19,6.18-.35-4.89-6.58-8.96-12.98-6.01-20.59,1.55-3.99,4.13-8.12,7.39-10.79,7.4-6.08,17.61-5.11,24.65,1.38,7.86,7.25,7.85,16.65-.79,30.33ZM85.11,201.75c-12.28,8.21-20.88,8.61-28.56,1.66-6.89-6.24-9-16.4-3.94-24.03,9-13.58,20.46-12.12,32.48-3.53v-25.21c-1.23-.08-2.2-.19-3.16-.19-8.16-.01-16.33-.09-24.49.03-3.87.06-5.99-1.76-5.15-5.4.82-3.56,2.2-7.21,4.21-10.25,4.15-6.27,3.15-13.97-2.92-18-5.59-3.71-14.02-1.65-17.22,4.59-2.7,5.26-1.79,10.23,2.3,14.68,3.19,3.47,4.38,8.15,2.27,11.97-1.02,1.84-5.69,1.74-8.74,2.33-1.28.25-2.66.04-3.99.04-6.92,0-13.83,0-20.96,0,0,21.78-.05,42.76.02,63.73.03,9.23,5.37,14.36,14.71,14.37,19.16.02,38.31.01,57.47.02,1.79,0,3.58,0,5.67,0v-26.8Z"/>
      <path class="cls-1" d="M183.26,92.5c-9.28,0-17.72.03-26.17,0-6.37-.03-6.9-.56-6.91-6.82-.03-9-.05-18,0-26.99.04-6.18,2.22-7.91,8.08-5.97,2.44.81,4.64,2.51,6.75,4.07,5.41,4.01,14.37,2.74,18.37-2.73,3.99-5.46,2.87-12.68-2.62-16.86-4.39-3.35-10.23-3.25-14.83.23-1.45,1.1-2.83,2.4-4.46,3.13-7.77,3.5-11.28,1.22-11.29-7.18,0-9.16.12-18.33-.03-27.49-.07-4.24,1.49-5.89,5.88-5.86,22.16.16,44.32,0,66.49.09,12.07.05,20.3,8.32,20.37,20.54.13,21.99-.02,43.99.11,65.99.03,4.28-1.47,6.02-5.82,5.9-7.49-.21-15-.08-22.49-.03-1.75,0-3.51.22-5.51.35,8.11,14.99,7.81,23.8-.71,30.76-7.53,6.15-18.02,6.04-25.2-.26-8.54-7.51-8.72-16.4-.02-30.84ZM157.85,85.27c9.52,0,18.49.09,27.46-.04,4.11-.06,6.28,1.88,5.37,5.72-.84,3.56-2.38,7.11-4.33,10.2-3.19,5.04-3.44,10.16.07,14.86,3.03,4.06,9.08,5.82,13.92,4.04,4.83-1.77,8.28-6.71,7.51-12.23-.41-2.91-2.77-5.5-3.66-8.41-1.17-3.82-2.96-8.03-2.29-11.67.79-4.29,5.59-2.29,8.65-2.38,8.26-.23,16.53-.08,24.97-.08.11-2.17.26-3.63.26-5.1.02-19.32.03-38.64,0-57.96-.01-9.87-5.19-15.01-15.13-15.03-19.49-.03-38.97-.01-58.46,0-1.43,0-2.86.19-4.6.31v26.46c14.12-8.49,23.13-8.33,30.56.08,6.16,6.97,6.78,17.7.53,24.68-2.83,3.16-7.01,5.93-11.07,6.99-6.9,1.81-13.79.47-19.79-5.33v24.87Z"/>
      <path class="cls-1" d="M92.85,61.09c0,8.62.02,16.6,0,24.59-.02,6.14-.55,6.72-6.44,6.75-9.33.04-18.66.05-27.99.01-5.76-.02-6.91-1.05-6.04-6.76.43-2.78,1.85-5.66,3.55-7.95,4.57-6.19,4.39-12.74-.96-17.45-4.71-4.16-11.74-3.98-16.35.4-4.75,4.51-4.91,11.57-.48,17.12,1.12,1.41,2.33,2.92,2.88,4.59,2.48,7.58.62,10.06-7.22,10.07-9.33,0-18.66-.09-27.99.08C1.92,92.59-.02,91.44,0,87.16c.12-22.49-.07-44.98.14-67.46C.25,8.47,8.61.22,19.89.13,42.37-.05,64.86.14,87.35,0c4.28-.03,5.54,1.88,5.48,5.75-.12,7.16-.04,14.33-.05,21.49,0,2.1,0,4.21,0,6.74,14.77-8.58,23.62-8.31,30.89.47,6.02,7.27,6.04,17.66.06,24.82-7.07,8.46-17.88,9.28-30.88,1.82ZM60.09,84.86h25.31c0-8.92,0-17.41,0-25.9,0-6.57,2.46-8.36,8.68-6.06,1.83.68,3.65,1.73,5.1,3.03,3.59,3.23,7.7,3.64,12.11,2.71,5.32-1.12,8.35-4.63,9.37-9.82,1.01-5.15-1.14-9.22-5.3-12.02-4.22-2.83-8.78-2.85-13.16-.13-1.4.87-2.47,2.62-3.93,2.99-3.44.86-7.18,1.91-10.46,1.24-1.26-.26-2.11-4.95-2.27-7.68-.34-5.81-.1-11.65-.1-17.48,0-2.75,0-5.51,0-8.57-21.62,0-42.41-.03-63.2.01-9.83.02-14.99,5.27-15,15.16-.02,19.31,0,38.63,0,57.94,0,1.58.14,3.17.22,4.99h26.68c-8.8-13.47-8.54-22.91.24-30.68,6.94-6.14,17.98-6.14,25.19,0,8.63,7.34,8.89,16.86.52,30.25Z"/>
      <path class="cls-1" d="M150.18,201.51c-12.73,8.88-22.67,8.82-30.19.6-6.51-7.12-6.95-17.74-1.04-25.17,7.33-9.22,16.35-9.65,31.26-.95,0-7.67,0-14.89,0-22.11q.01-10.65,10.52-10.68c7.66-.02,15.32-.04,22.98-.03,6.75.01,8.14,1.39,6.82,7.98-.52,2.61-2.19,5.13-3.79,7.35-4.22,5.86-3.8,12.51,1.38,17.03,4.62,4.03,11.46,3.97,15.95-.13,4.95-4.52,5.33-11.45,1.07-17.09-1.28-1.69-2.67-3.51-3.22-5.49-2.14-7.66-.59-9.58,7.27-9.6,9.32-.02,18.65.09,27.97-.09,4.29-.08,5.89,1.58,5.87,5.89-.13,22.15.06,44.29-.1,66.44-.08,11.77-8.52,20.16-20.2,20.22-22.15.12-44.29-.05-66.44.09-4.52.03-6.32-1.54-6.18-6.1.23-7.49.06-14.98.06-22.48,0-1.59,0-3.18,0-5.69ZM157.64,228.28c1.99.12,3.45.28,4.9.28,19.48.01,38.97.03,58.45,0,9.55-.02,14.77-5.27,14.78-14.84.03-19.82.02-39.64,0-59.45,0-1.12-.15-2.24-.23-3.37h-26.5c8.44,12.92,8.45,21.96.36,29.62-6.62,6.27-17.28,7.47-24.25,1.76-3.4-2.78-6.37-6.95-7.81-11.09-2.58-7.44.56-14.17,6.23-20.41h-25.98c0,9.5-.08,18.64.04,27.78.05,3.65-1.53,5.01-5.06,5.13-4.28.13-7.56-1.45-10.8-4.19-5.08-4.3-12.3-3.48-16.61,1.4-4.07,4.6-4.08,11.3-.02,15.96,4.27,4.91,11.3,5.57,16.64,1.61,1.72-1.28,3.38-2.85,5.33-3.57,7.49-2.76,10.49-.57,10.5,7.29,0,8.61,0,17.22,0,26.11Z"/>
    </g>
  </g>
</svg>