<?xml version="1.0" encoding="UTF-8"?>
<svg id="Layer_2" xmlns="http://www.w3.org/2000/svg" viewBox="0 0 404.54 236.6">
  <defs>
    <style>
      .cls-1 {
        stroke-width: 7px;
      }

      .cls-1, .cls-2 {
        fill: none;
        stroke: #fff;
        stroke-linejoin: round;
      }

      .cls-2 {
        stroke-linecap: round;
        stroke-width: 8px;
      }
    </style>
  </defs>
  <g id="Layer_1-2" data-name="Layer_1">
    <g>
      <path class="cls-2" d="M66.81,201.87H4c.53-50.88,17.83-94.87,51.11-132.68,14.9,15,29.5,29.71,44.42,44.73-21.08,24.99-32.25,54.39-32.72,87.95Z"/>
      <path class="cls-2" d="M304.59,113.49c14.95-15.01,29.5-29.6,44.47-44.63,33.58,37.95,50.82,81.96,51.48,132.97h-62.83c-.31-16.2-2.93-32-8.68-47.21-5.7-15.09-13.91-28.69-24.44-41.14Z"/>
      <path class="cls-2" d="M294.26,102.52q-37.92-26.65-84.86-36.03V4.83c30.29-6.22,104.06,24.64,129.11,53.82-14.73,14.6-29.44,29.19-44.24,43.86Z"/>
      <path class="cls-2" d="M66.06,58.04C101.97,24.69,144.9,6.5,195,4v62.87c-15.75,1.29-31.1,4.48-45.74,10.76-14.52,6.23-27.49,14.81-38.98,25.19-14.7-14.88-29.25-29.61-44.22-44.77Z"/>
      <path class="cls-1" d="M284.78,119.71c-9.95,13.39-19.9,26.78-29.85,40.16-9.05,12.17-18.19,24.27-27.08,36.57-1.27,1.76-2.08,4.47-1.92,6.65,1.16,15.31-9.94,28.96-24.66,29.94-15.48,1.03-28.23-11.13-28.64-27.32-.38-14.89,11.82-28.01,26.5-27.44,5.44.21,9.29-1.53,13.37-4.68,22.61-17.42,45.35-34.67,68.05-51.96,1.18-.9,2.41-1.73,3.61-2.6l.63.67ZM212.04,206.09c.26-7.4-5.22-13.58-12.28-13.86-6.79-.27-12.87,5.51-13.17,12.51-.32,7.49,5.02,13.73,12.07,14.08,7.06.36,13.13-5.42,13.38-12.73Z"/>
    </g>
  </g>
</svg>